<svg width="55" height="55" viewBox="0 0 55 55" fill="none" xmlns="http://www.w3.org/2000/svg">
<g clip-path="url(#clip0_14_147)">
<path d="M24.7037 39.5085L16.5148 31.3196C16.2645 31.0273 16.1337 30.6514 16.1486 30.2669C16.1635 29.8824 16.3228 29.5176 16.5949 29.2455C16.867 28.9734 17.2318 28.814 17.6163 28.7992C18.0008 28.7843 18.3767 28.9151 18.669 29.1654L24.7037 35.139L37.9037 21.939C38.196 21.6887 38.5719 21.5579 38.9564 21.5728C39.3409 21.5876 39.7057 21.747 39.9778 22.0191C40.2499 22.2912 40.4093 22.656 40.4241 23.0405C40.439 23.425 40.3082 23.8009 40.0579 24.0932L24.7037 39.5085Z" fill="#0066FF"/>
<path d="M49.2713 9.16656H44.3061V12.2221H48.8894V45.8332H6.11161V12.2221H10.6949V9.16656H5.72967C5.37253 9.17253 5.02007 9.2488 4.69241 9.39101C4.36475 9.53322 4.06832 9.73858 3.82004 9.99537C3.57176 10.2522 3.3765 10.5553 3.24542 10.8876C3.11433 11.2199 3.04999 11.5747 3.05606 11.9318V46.1235C3.04999 46.4806 3.11433 46.8355 3.24542 47.1677C3.3765 47.5 3.57176 47.8032 3.82004 48.06C4.06832 48.3168 4.36475 48.5221 4.69241 48.6643C5.02007 48.8066 5.37253 48.8828 5.72967 48.8888H49.2713C49.6285 48.8828 49.9809 48.8066 50.3086 48.6643C50.6362 48.5221 50.9327 48.3168 51.181 48.06C51.4292 47.8032 51.6245 47.5 51.7556 47.1677C51.8867 46.8355 51.951 46.4806 51.9449 46.1235V11.9318C51.951 11.5747 51.8867 11.2199 51.7556 10.8876C51.6245 10.5553 51.4292 10.2522 51.181 9.99537C50.9327 9.73858 50.6362 9.53322 50.3086 9.39101C49.9809 9.2488 49.6285 9.17253 49.2713 9.16656Z" fill="#0066FF"/>
<path d="M15.2778 15.2776C15.683 15.2776 16.0716 15.1167 16.3581 14.8302C16.6446 14.5437 16.8056 14.1551 16.8056 13.7499V4.5832C16.8056 4.17801 16.6446 3.78941 16.3581 3.5029C16.0716 3.21638 15.683 3.05542 15.2778 3.05542C14.8726 3.05542 14.484 3.21638 14.1975 3.5029C13.911 3.78941 13.75 4.17801 13.75 4.5832V13.7499C13.75 14.1551 13.911 14.5437 14.1975 14.8302C14.484 15.1167 14.8726 15.2776 15.2778 15.2776Z" fill="#0066FF"/>
<path d="M39.7221 15.2776C40.1273 15.2776 40.5159 15.1167 40.8024 14.8302C41.0889 14.5437 41.2499 14.1551 41.2499 13.7499V4.5832C41.2499 4.17801 41.0889 3.78941 40.8024 3.5029C40.5159 3.21638 40.1273 3.05542 39.7221 3.05542C39.3169 3.05542 38.9283 3.21638 38.6418 3.5029C38.3553 3.78941 38.1943 4.17801 38.1943 4.5832V13.7499C38.1943 14.1551 38.3553 14.5437 38.6418 14.8302C38.9283 15.1167 39.3169 15.2776 39.7221 15.2776Z" fill="#0066FF"/>
<path d="M19.8608 9.16656H35.1386V12.2221H19.8608V9.16656Z" fill="#0066FF"/>
</g>
<defs>
<clipPath id="clip0_14_147">
<rect width="55" height="55" fill="white"/>
</clipPath>
</defs>
</svg>
