<svg width="46" height="47" viewBox="0 0 46 47" fill="none" xmlns="http://www.w3.org/2000/svg">
<path d="M38.0793 7.87177L23.4966 2.90213C23.3206 2.84205 23.0846 2.81201 22.8485 2.81201C22.6125 2.81201 22.3765 2.84205 22.2005 2.90213L7.61775 7.87177C7.26155 7.99194 6.96973 8.40393 6.96973 8.78159V29.4841C6.96973 29.8618 7.21435 30.3596 7.51046 30.5956L22.3035 42.1228C22.4537 42.2387 22.6468 42.2987 22.8442 42.2987C23.0417 42.2987 23.2391 42.2387 23.385 42.1228L38.178 30.5956C38.4741 30.3639 38.7188 29.8661 38.7188 29.4841V8.78159C38.7273 8.40393 38.4355 7.99623 38.0793 7.87177ZM36.8313 28.7622L22.8485 39.8652L8.86582 28.7622V9.23636L22.8485 4.57546L36.8313 9.90221V28.7622ZM18.2222 20.0341C18.0935 19.8581 17.8875 19.7508 17.6643 19.7508H15.2954C15.0164 19.7508 14.8533 20.0684 15.0164 20.2959L20.441 27.7632C20.5051 27.851 20.5891 27.9224 20.686 27.9716C20.7829 28.0209 20.8901 28.0465 20.9989 28.0465C21.1076 28.0465 21.2148 28.0209 21.3117 27.9716C21.4087 27.9224 21.4926 27.851 21.5568 27.7632L30.6807 15.2018C30.8437 14.9743 30.6807 14.6567 30.4017 14.6567H28.0328C27.8139 14.6567 27.6036 14.764 27.4748 14.94L20.9989 23.8579L18.2222 20.0341Z" fill="white"/>
</svg>
