<svg width="46" height="47" viewBox="0 0 46 47" fill="none" xmlns="http://www.w3.org/2000/svg">
<g clip-path="url(#clip0_19_490)">
<path d="M20.7904 32.3913L14.7717 26.3726C14.5878 26.1578 14.4916 25.8815 14.5025 25.5989C14.5135 25.3163 14.6306 25.0482 14.8306 24.8482C15.0306 24.6482 15.2987 24.5311 15.5813 24.5201C15.8639 24.5092 16.1402 24.6053 16.355 24.7893L20.7904 29.1798L30.4922 19.478C30.7071 19.2941 30.9834 19.1979 31.266 19.2088C31.5486 19.2198 31.8167 19.3369 32.0166 19.5369C32.2166 19.7369 32.3338 20.005 32.3447 20.2876C32.3556 20.5702 32.2595 20.8465 32.0755 21.0613L20.7904 32.3913Z" fill="white"/>
<path d="M38.8468 10.0913H35.1974V12.3371H38.566V37.0408H7.12498V12.3371H10.4937V10.0913H6.84426C6.58177 10.0957 6.32271 10.1517 6.08189 10.2563C5.84107 10.3608 5.62319 10.5117 5.44071 10.7005C5.25823 10.8892 5.11472 11.112 5.01837 11.3563C4.92203 11.6005 4.87473 11.8613 4.87919 12.1237V37.2541C4.87473 37.5166 4.92203 37.7774 5.01837 38.0216C5.11472 38.2658 5.25823 38.4887 5.44071 38.6774C5.62319 38.8661 5.84107 39.0171 6.08189 39.1216C6.32271 39.2261 6.58177 39.2822 6.84426 39.2866H38.8468C39.1093 39.2822 39.3683 39.2261 39.6091 39.1216C39.85 39.0171 40.0678 38.8661 40.2503 38.6774C40.4328 38.4887 40.5763 38.2658 40.6726 38.0216C40.769 37.7774 40.8163 37.5166 40.8118 37.2541V12.1237C40.8163 11.8613 40.769 11.6005 40.6726 11.3563C40.5763 11.112 40.4328 10.8892 40.2503 10.7005C40.0678 10.5117 39.85 10.3608 39.6091 10.2563C39.3683 10.1517 39.1093 10.0957 38.8468 10.0913Z" fill="white"/>
<path d="M13.8617 14.5828C14.1595 14.5828 14.4451 14.4645 14.6557 14.2539C14.8663 14.0433 14.9846 13.7577 14.9846 13.4599V6.7225C14.9846 6.42469 14.8663 6.13908 14.6557 5.9285C14.4451 5.71791 14.1595 5.59961 13.8617 5.59961C13.5639 5.59961 13.2782 5.71791 13.0677 5.9285C12.8571 6.13908 12.7388 6.42469 12.7388 6.7225V13.4599C12.7388 13.7577 12.8571 14.0433 13.0677 14.2539C13.2782 14.4645 13.5639 14.5828 13.8617 14.5828Z" fill="white"/>
<path d="M31.8277 14.5828C32.1255 14.5828 32.4112 14.4645 32.6217 14.2539C32.8323 14.0433 32.9506 13.7577 32.9506 13.4599V6.7225C32.9506 6.42469 32.8323 6.13908 32.6217 5.9285C32.4112 5.71791 32.1255 5.59961 31.8277 5.59961C31.5299 5.59961 31.2443 5.71791 31.0337 5.9285C30.8231 6.13908 30.7048 6.42469 30.7048 6.7225V13.4599C30.7048 13.7577 30.8231 14.0433 31.0337 14.2539C31.2443 14.4645 31.5299 14.5828 31.8277 14.5828Z" fill="white"/>
<path d="M17.2302 10.0913H28.4592V12.3371H17.2302V10.0913Z" fill="white"/>
</g>
<defs>
<clipPath id="clip0_19_490">
<rect width="46" height="46" fill="white" transform="translate(0 0.0239258)"/>
</clipPath>
</defs>
</svg>
