<svg width="53" height="53" viewBox="0 0 53 53" fill="none" xmlns="http://www.w3.org/2000/svg">
<path d="M26.4999 1.86456C19.9671 1.8676 13.7028 4.46408 9.0834 9.08346C4.46402 13.7028 1.86754 19.9672 1.8645 26.5C1.86754 33.0328 4.46402 39.2971 9.0834 43.9165C13.7028 48.5359 19.9671 51.1324 26.4999 51.1354C33.0327 51.1324 39.2971 48.5359 43.9164 43.9165C48.5358 39.2971 51.1323 33.0328 51.1353 26.5C51.1323 19.9672 48.5358 13.7028 43.9164 9.08346C39.2971 4.46408 33.0327 1.8676 26.4999 1.86456ZM21.3895 6.56248L24.2083 9.64477L22.4666 12.9104L16.7374 16.2562L14.5833 23.6125L24.4489 26.7406L13.8958 42.7594C12.7413 41.8654 11.685 40.8514 10.7447 39.7344L9.16346 26.5L14.5833 23.6469L6.87179 20.2666C7.9261 16.9331 9.81053 13.9223 12.348 11.517C14.8856 9.11182 17.9929 7.39113 21.378 6.51665L21.3895 6.56248ZM35.6666 8.07498C38.1906 9.32748 40.4296 11.0866 42.2437 13.2427L32.2291 13.6094L35.6666 8.07498ZM43.4124 14.7666C46.3206 18.9342 47.579 24.0326 46.944 29.0748C46.3089 34.1169 43.8257 38.7441 39.9749 42.0604L38.9207 30.3614L32.0458 28.4135L30.453 20.6219L43.4124 14.7666Z" stroke="#0066FF" stroke-width="2" stroke-linecap="round" stroke-linejoin="round"/>
</svg>
