<svg width="55" height="55" viewBox="0 0 55 55" fill="none" xmlns="http://www.w3.org/2000/svg">
<g clip-path="url(#clip0_14_154)">
<path d="M43.8281 39.2627C45.0098 39.8535 46.075 40.5786 47.0239 41.438C47.9728 42.2973 48.7785 43.2552 49.4409 44.3115C50.1034 45.3678 50.6226 46.5137 50.9985 47.749C51.3745 48.9844 51.5625 50.2555 51.5625 51.5625H48.125C48.125 50.1481 47.8564 48.8143 47.3193 47.561C46.7822 46.3078 46.0482 45.2156 45.1172 44.2847C44.1862 43.3537 43.0851 42.6107 41.814 42.0556C40.5428 41.5006 39.209 41.2321 37.8125 41.25C36.3802 41.25 35.0464 41.5185 33.811 42.0556C32.5757 42.5928 31.4836 43.3268 30.5347 44.2578C29.5858 45.1888 28.8428 46.2899 28.3057 47.561C27.7686 48.8322 27.5 50.166 27.5 51.5625H24.0625C24.0625 50.2555 24.2415 48.9844 24.5996 47.749C24.9577 46.5137 25.4769 45.3678 26.1572 44.3115C26.8376 43.2552 27.6522 42.2973 28.6011 41.438C29.55 40.5786 30.6152 39.8535 31.7969 39.2627C30.4541 38.2959 29.4067 37.0874 28.6548 35.6372C27.9028 34.187 27.5179 32.6204 27.5 30.9375C27.5 29.5231 27.2314 28.1893 26.6943 26.936C26.1572 25.6828 25.4232 24.5906 24.4922 23.6597C23.5612 22.7287 22.4601 21.9857 21.189 21.4306C19.9178 20.8756 18.584 20.6071 17.1875 20.625C15.7552 20.625 14.4214 20.8935 13.186 21.4306C11.9507 21.9678 10.8586 22.7018 9.90967 23.6328C8.96077 24.5638 8.21777 25.6649 7.68066 26.936C7.14355 28.2072 6.875 29.541 6.875 30.9375H3.4375C3.4375 29.6305 3.61654 28.3594 3.97461 27.124C4.33268 25.8887 4.85189 24.7428 5.53223 23.6865C6.21257 22.6302 7.02718 21.6723 7.97607 20.813C8.92497 19.9536 9.99023 19.2285 11.1719 18.6377C9.8291 17.6709 8.78174 16.4624 8.02979 15.0122C7.27783 13.562 6.8929 11.9954 6.875 10.3125C6.875 8.8981 7.14355 7.56428 7.68066 6.31102C8.21777 5.05776 8.95182 3.96564 9.88281 3.03465C10.8138 2.10366 11.9059 1.36066 13.1592 0.805649C14.4124 0.250636 15.7552 -0.0179189 17.1875 -1.52588e-05C18.6019 -1.52588e-05 19.9357 0.268539 21.189 0.805649C22.4422 1.34276 23.5343 2.07681 24.4653 3.0078C25.3963 3.93879 26.1393 5.03986 26.6943 6.31102C27.2493 7.58218 27.5179 8.916 27.5 10.3125C27.5 11.9954 27.124 13.562 26.3721 15.0122C25.6201 16.4624 24.5638 17.6709 23.2031 18.6377C24.5638 19.318 25.7812 20.1953 26.8555 21.2695C27.9297 22.3437 28.807 23.5612 29.4873 24.9219C30.4541 23.5791 31.6626 22.5317 33.1128 21.7798C34.563 21.0278 36.1296 20.6429 37.8125 20.625C39.2269 20.625 40.5607 20.8935 41.814 21.4306C43.0672 21.9678 44.1593 22.7018 45.0903 23.6328C46.0213 24.5638 46.7643 25.6649 47.3193 26.936C47.8743 28.2072 48.1429 29.541 48.125 30.9375C48.125 32.6204 47.749 34.187 46.9971 35.6372C46.2451 37.0874 45.1888 38.2959 43.8281 39.2627ZM17.1875 17.1875C18.1364 17.1875 19.0226 17.0084 19.8462 16.6504C20.6698 16.2923 21.4038 15.8 22.0483 15.1733C22.6929 14.5467 23.1852 13.8216 23.5254 12.998C23.8656 12.1745 24.0446 11.2793 24.0625 10.3125C24.0625 9.36359 23.8835 8.47736 23.5254 7.65379C23.1673 6.83023 22.675 6.09618 22.0483 5.45164C21.4217 4.80711 20.6966 4.31476 19.873 3.97459C19.0495 3.63442 18.1543 3.45539 17.1875 3.43748C16.2386 3.43748 15.3524 3.61652 14.5288 3.97459C13.7052 4.33267 12.9712 4.82502 12.3267 5.45164C11.6821 6.07827 11.1898 6.80337 10.8496 7.62694C10.5094 8.45051 10.3304 9.34569 10.3125 10.3125C10.3125 11.2614 10.4915 12.1476 10.8496 12.9712C11.2077 13.7947 11.7 14.5288 12.3267 15.1733C12.9533 15.8179 13.6784 16.3102 14.502 16.6504C15.3255 16.9905 16.2207 17.1696 17.1875 17.1875ZM37.8125 37.8125C38.7614 37.8125 39.6476 37.6334 40.4712 37.2754C41.2948 36.9173 42.0288 36.425 42.6733 35.7983C43.3179 35.1717 43.8102 34.4466 44.1504 33.623C44.4906 32.7995 44.6696 31.9043 44.6875 30.9375C44.6875 29.9886 44.5085 29.1024 44.1504 28.2788C43.7923 27.4552 43.3 26.7212 42.6733 26.0766C42.0467 25.4321 41.3216 24.9398 40.498 24.5996C39.6745 24.2594 38.7793 24.0804 37.8125 24.0625C36.8636 24.0625 35.9774 24.2415 35.1538 24.5996C34.3302 24.9577 33.5962 25.45 32.9517 26.0766C32.3071 26.7033 31.8148 27.4284 31.4746 28.2519C31.1344 29.0755 30.9554 29.9707 30.9375 30.9375C30.9375 31.8864 31.1165 32.7726 31.4746 33.5962C31.8327 34.4197 32.325 35.1538 32.9517 35.7983C33.5783 36.4429 34.3034 36.9352 35.127 37.2754C35.9505 37.6155 36.8457 37.7946 37.8125 37.8125ZM41.25 6.87498H30.9375V3.43748H44.6875V17.1875H41.25V6.87498Z" fill="#0066FF"/>
</g>
<defs>
<clipPath id="clip0_14_154">
<rect width="55" height="55" fill="white"/>
</clipPath>
</defs>
</svg>
